/* XPM */
const char * object_xpm[] = {
"64 64 3 1",
" 	c None",
".	c #492FEF",
"+	c #E21D3B",
"................................................................",
"................................................................",
"................................................................",
"................................................................",
"................................................................",
"................................................................",
"................................................................",
"................................................................",
"................................................................",
"................................................................",
"............. ..................................................",
".............                   ................................",
".............                       ............................",
".............                                      .............",
".............                                      .............",
".............                                     ..............",
".............                                     ..............",
".............                                     ..............",
".............                                     ..............",
".............                                     ..............",
".............                                     ..............",
".............                                     ..............",
".............               +++++++               ..............",
".............             +++++++++++             ..............",
"..............           +++++++++++++            ..............",
"..............          +++++++++++++++           ..............",
".............          +++++++++++++++++          ..............",
".............          +++++++++++++++++          ..............",
".............          ++++++++++++++++++         ..............",
".............         +++++++++++++++++++         ..............",
".............         +++++++++++++++++++         ..............",
".............         +++++++++++++++++++         ..............",
".............         +++++++++++++++++++         ..............",
".............         +++++++++++++++++++         ..............",
"............           ++++++++++++++++++         ..............",
"............           +++++++++++++++++          ..............",
"............            ++++++++++++++++          ..............",
"............            +++++++++++++++           ..............",
"............             +++++++++++++            ..............",
"............               ++++++++++             ..............",
"............                 +++++                ..............",
"............                                      ..............",
"............                                      ..............",
"............                                      ..............",
"............                                      ..............",
"............                                      ..............",
"............                                      ..............",
"............                                      ..............",
"............                                      ..............",
"................................                  ..............",
"................................................................",
"................................................................",
"................................................................",
"................................................................",
"................................................................",
"................................................................",
"................................................................",
"................................................................",
"................................................................",
"................................................................",
"................................................................",
"................................................................",
"................................................................",
"................................................................"};
