/* XPM */
const char * rayures4_xpm[] = {
"16 12 3 1",
" 	c None",
".	c #E2DCD5",
"+	c #EEEEEE",
"................",
"++++++++++++++++",
"++++++++++++++++",
"................",
"++++++++++++++++",
"++++++++++++++++",
"................",
"++++++++++++++++",
"++++++++++++++++",
"................",
"++++++++++++++++",
"++++++++++++++++"};
