/* XPM */
const char * rayures3_xpm[] = {
"16 12 3 1",
" 	c None",
".	c #D8E7B9",
"+	c #DDF0CB",
"................",
"++++++++++++++++",
"++++++++++++++++",
"................",
"++++++++++++++++",
"++++++++++++++++",
"................",
"++++++++++++++++",
"++++++++++++++++",
"................",
"++++++++++++++++",
"++++++++++++++++"};
