/* XPM */
const char * rayures2_xpm[] = {
"16 12 3 1",
" 	c None",
".	c #EECEDA",
"+	c #F5DDF5",
"................",
"++++++++++++++++",
"++++++++++++++++",
"................",
"++++++++++++++++",
"++++++++++++++++",
"................",
"++++++++++++++++",
"++++++++++++++++",
"................",
"++++++++++++++++",
"++++++++++++++++"};
