/* XPM */
const char * rayures5_xpm[] = {
"16 12 3 1",
" 	c None",
".	c #F3C6B5",
"+	c #FEDCDC",
"................",
"++++++++++++++++",
"++++++++++++++++",
"................",
"++++++++++++++++",
"++++++++++++++++",
"................",
"++++++++++++++++",
"++++++++++++++++",
"................",
"++++++++++++++++",
"++++++++++++++++"};
