/* XPM */
const char * rayures1_xpm[] = {
"16 12 3 1",
" 	c None",
".	c #F2E6D2",
"+	c #FFFFFF",
"................",
"++++++++++++++++",
"++++++++++++++++",
"................",
"++++++++++++++++",
"++++++++++++++++",
"................",
"++++++++++++++++",
"++++++++++++++++",
"................",
"++++++++++++++++",
"++++++++++++++++"};
